<svg width="7" height="15" viewBox="0 0 7 15" fill="none" xmlns="http://www.w3.org/2000/svg">
<path d="M6.976 10.168C6.976 10.968 6.736 11.6347 6.256 12.168C5.776 12.7013 5.13067 13.0267 4.32 13.144L4.352 14.888H3.232L3.264 13.192C2.06933 13.1173 1.14667 12.92 0.496 12.6L0.912 11.256C1.91467 11.6613 2.76267 11.864 3.456 11.864C4.14933 11.864 4.66667 11.7147 5.008 11.416C5.34933 11.1173 5.52 10.7387 5.52 10.28C5.52 9.82133 5.328 9.432 4.944 9.112C4.57067 8.78133 4.10133 8.47733 3.536 8.2C2.98133 7.92267 2.61867 7.74133 2.448 7.656C2.288 7.56 2.08 7.416 1.824 7.224C1.568 7.02133 1.376 6.82933 1.248 6.648C0.928 6.168 0.768 5.58667 0.768 4.904C0.768 4.22133 1.00267 3.65067 1.472 3.192C1.952 2.72267 2.57067 2.44 3.328 2.344L3.296 0.615999H4.416L4.384 2.328C5.06667 2.37067 5.776 2.52533 6.512 2.792L6.112 4.056C5.344 3.77867 4.64533 3.64 4.016 3.64C3.38667 3.64 2.928 3.76267 2.64 4.008C2.352 4.25333 2.208 4.57867 2.208 4.984C2.208 5.37867 2.37867 5.71467 2.72 5.992C3.06133 6.26933 3.504 6.552 4.048 6.84C4.592 7.11733 4.992 7.34133 5.248 7.512C5.504 7.672 5.78133 7.89067 6.08 8.168C6.67733 8.70133 6.976 9.368 6.976 10.168Z" fill="#828282"/>
</svg>
